<svg id="Layer_26" data-name="Layer 26" xmlns="http://www.w3.org/2000/svg" viewBox="0 0 64 64"><defs><style>.cls-1{fill:#bd6428;}.cls-2{fill:#f5f6f6;}.cls-3{fill:#a35623;}.cls-4{fill:#cecece;}.cls-5{fill:#d17f4d;}.cls-6{fill:#e9e9e9;}.cls-7{fill:#9ba7af;}.cls-8{fill:#72818b;}.cls-9{fill:#afbabf;}.cls-10{fill:#3cb54a;}.cls-11{fill:#0e9347;}.cls-12{fill:#89c763;}.cls-13{fill:#fff;}.cls-14{fill:#dddfe1;}</style></defs><title>clipboard_flat_net</title><rect class="cls-1" x="10" y="8" width="44" height="56" rx="4" ry="4"/><path class="cls-2" d="M15,60a1,1,0,0,1-1-1V13a1,1,0,0,1,1-1H49a1,1,0,0,1,1,1V49L39,60H15Z"/><path class="cls-3" d="M22,12H20V10a2,2,0,0,1,2-2h0v4Z"/><path class="cls-4" d="M50,49H40a1,1,0,0,0-1,1V60Z"/><rect class="cls-5" x="10" y="11" width="2" height="35" rx="1" ry="1"/><path class="cls-6" d="M38,51v2a1,1,0,0,1-1,1h0a1,1,0,0,0-1,1,1,1,0,0,1-1,1H34a1,1,0,0,0-1,1,1,1,0,0,1-1,1H14v1a1,1,0,0,0,1,1H39V50A1,1,0,0,0,38,51Z"/><path class="cls-6" d="M49,12H20a8.57,8.57,0,0,1,0,.9A2,2,0,0,0,22,15H46a2,2,0,0,1,2,2v3h0a2,2,0,0,0,2,2h0V13A1,1,0,0,0,49,12Z"/><path class="cls-7" d="M38.59,5.64a3.09,3.09,0,0,1-1.79-2,5,5,0,0,0-9.6,0,3.09,3.09,0,0,1-1.79,2l-2.15.86A2,2,0,0,0,22,8.35V12a2,2,0,0,0,2,2H40a2,2,0,0,0,2-2V8.35A2,2,0,0,0,40.74,6.5ZM32,7a2,2,0,1,1,2-2A2,2,0,0,1,32,7Z"/><path class="cls-8" d="M39,8a1,1,0,0,0-1,1h0a1,1,0,0,1-1,1H35a1,1,0,0,0-1,1h0a1,1,0,0,1-1,1H22a2,2,0,0,0,2,2H40a2,2,0,0,0,2-2V8H39Z"/><path class="cls-9" d="M28.13,5a1,1,0,0,1-1-1.25A5,5,0,0,1,32,0a1,1,0,0,1,0,2,3,3,0,0,0-2.91,2.25A1,1,0,0,1,28.13,5Z"/><path class="cls-3" d="M50,10H46a2,2,0,0,1-2-2H42v4h7a1,1,0,0,1,1,1V49L39,60H15a2,2,0,0,0,2,2H41.34a4,4,0,0,0,2.83-1.17l6.66-6.66A4,4,0,0,0,52,51.34V12A2,2,0,0,0,50,10Z"/><circle class="cls-10" cx="32" cy="33" r="13"/><path class="cls-11" d="M43,31a2,2,0,0,0-2,2,9,9,0,0,1-9,9,2,2,0,0,0,0,4A13,13,0,0,0,45,33,2,2,0,0,0,43,31Z"/><path class="cls-12" d="M21,35a2,2,0,0,0,2-2,9,9,0,0,1,9-9,2,2,0,0,0,0-4A13,13,0,0,0,19,33,2,2,0,0,0,21,35Z"/><path class="cls-13" d="M39.41,27.59a2,2,0,0,0-2.83,0L30,34.18l-2.38-2.36a1.83,1.83,0,0,0-.19-0.23,2,2,0,0,0-2.83,0,2,2,0,0,0,0,2.83h0l4,4a2,2,0,0,0,2.83,0l8-8h0A2,2,0,0,0,39.41,27.59Z"/><path class="cls-14" d="M39.41,27.59a2,2,0,0,0-.59-0.4,2,2,0,0,1-.41,2.23h0l-8,8a2,2,0,0,1-2.83,0l1,1a2,2,0,0,0,2.83,0l8-8h0A2,2,0,0,0,39.41,27.59Z"/><path class="cls-11" d="M40.41,28.59a2,2,0,0,0-.59-0.4,2,2,0,0,1-.41,2.23h0l-8,8a2,2,0,0,1-2.83,0l1,1a2,2,0,0,0,2.83,0l8-8h0A2,2,0,0,0,40.41,28.59Z"/></svg>